<?xml version="1.0" encoding="utf-8"?>
<!-- Generator: Adobe Illustrator 26.0.2, SVG Export Plug-In . SVG Version: 6.00 Build 0)  -->
<svg version="1.1" xmlns="http://www.w3.org/2000/svg" xmlns:xlink="http://www.w3.org/1999/xlink" x="0px" y="0px"
	 viewBox="0 0 400 350" style="enable-background:new 0 0 400 350;" xml:space="preserve">
<style type="text/css">
	.st0{opacity:0.73;fill:#F1F2F2;}
	.st1{opacity:0.77;fill:#FCB51D;}
	.st2{fill:#FCB51D;}
	.st3{opacity:0.86;fill:url(#SVGID_1_);}
	.st4{fill:#F68E1F;}
	.st5{opacity:0.77;fill:#F68E1F;}
	.st6{fill:url(#SVGID_00000015329936172000068740000007764598269140534946_);}
	.st7{fill:#FFFFFF;}
	.st8{fill:#F1F2F2;}
	
		.st9{fill:none;stroke:url(#SVGID_00000159431637423649076400000015194123842875620739_);stroke-width:2;stroke-linecap:round;stroke-miterlimit:10;}
	
		.st10{fill:none;stroke:url(#SVGID_00000078725254501673361360000010248726051024730297_);stroke-width:2;stroke-linecap:round;stroke-miterlimit:10;}
	
		.st11{fill:none;stroke:url(#SVGID_00000149365540723295614130000011777083136279207861_);stroke-width:2;stroke-linecap:round;stroke-miterlimit:10;}
	
		.st12{fill:none;stroke:url(#SVGID_00000170276051488107046080000013007290439533524641_);stroke-width:2;stroke-linecap:round;stroke-miterlimit:10;}
	
		.st13{fill:none;stroke:url(#SVGID_00000143607489106154501600000000331174837542777264_);stroke-width:2;stroke-linecap:round;stroke-miterlimit:10;}
	
		.st14{fill:none;stroke:url(#SVGID_00000099655848330808788820000003515468864496849313_);stroke-width:2;stroke-linecap:round;stroke-miterlimit:10;}
	
		.st15{fill:none;stroke:url(#SVGID_00000001621664382711815550000007182778176289170353_);stroke-width:2;stroke-linecap:round;stroke-miterlimit:10;}
	
		.st16{fill:none;stroke:url(#SVGID_00000057861352482236257480000002478620554771433379_);stroke-width:2;stroke-linecap:round;stroke-miterlimit:10;}
	
		.st17{fill:none;stroke:url(#SVGID_00000114031558271838410170000003090040202490614449_);stroke-width:2;stroke-linecap:round;stroke-miterlimit:10;}
	
		.st18{fill:none;stroke:url(#SVGID_00000154388666117704934920000013328481999458451380_);stroke-width:2;stroke-linecap:round;stroke-miterlimit:10;}
	
		.st19{fill:none;stroke:url(#SVGID_00000116195354527966943950000016061284154016566186_);stroke-width:2;stroke-linecap:round;stroke-miterlimit:10;}
	
		.st20{fill:none;stroke:url(#SVGID_00000177446550777960535240000000187102240414401460_);stroke-width:2;stroke-linecap:round;stroke-miterlimit:10;}
	
		.st21{fill:none;stroke:url(#SVGID_00000074413545123205549000000012722265294659243146_);stroke-width:2;stroke-linecap:round;stroke-miterlimit:10;}
	
		.st22{fill:none;stroke:url(#SVGID_00000011744917790472235030000005157157669494333107_);stroke-width:2;stroke-linecap:round;stroke-miterlimit:10;}
	.st23{fill:#F1F2F2;stroke:#E6E7E8;stroke-width:2;stroke-miterlimit:10;}
	.st24{fill:url(#SVGID_00000119107345398249499860000007295403472012749200_);}
	.st25{fill:#F1F2F2;stroke:#D1D3D4;stroke-width:2;stroke-miterlimit:10;}
	.st26{fill:url(#SVGID_00000043421868426513554440000005243406347305864638_);}
	.st27{fill:url(#SVGID_00000020384130731161681990000013721713474992448420_);}
</style>
<g id="bg">
	<path class="st0" d="M285.39,102.82c-33.96-20.39-64.05,8.65-75.45,31.76c-11.41,23.11-25.26,36.49-66.69,51.98
		c-28.77,10.75-41.62,41.28-28.62,64.11c13,22.83,47.38,52.77,108.26,39.07c58.08-13.07,91.62-62.67,97.78-106.12
		C325.41,150.18,312.18,118.9,285.39,102.82z"/>
	<path class="st1" d="M214.19,224.27c-1.78-16.94-16.13-24.48-29.23-28.5c-13.09-4.03-25.65-10.77-39.85-38.87
		c-14.2-28.1-37.59-28.94-54.97-15.73c-7.27,5.52-12.46,17.07-11.31,27.61c0.82,7.53,0.95,15.52-3.55,24.76
		c-4.5,9.24-20.79,15.81-15.07,33.6c4.53,14.09,27.08,26.63,48.98,11.9c21.91-14.73,32.78-8.98,41.74-0.59
		c9.05,8.48,22.28,19.45,38.26,17.53C202.89,254.33,215.97,241.21,214.19,224.27z"/>
	<g>
		<g>
			<path class="st2" d="M197.82,107.14L197.82,107.14c0.32,0.32,0.84,0.32,1.17,0l19.37-19.18c0.32-0.32,0.32-0.84,0-1.15v0
				c-0.32-0.32-0.84-0.32-1.17,0l-19.37,19.18C197.5,106.3,197.5,106.82,197.82,107.14z"/>
		</g>
		<g>
			<path class="st2" d="M189.17,121.49L189.17,121.49c0.32,0.32,0.84,0.32,1.17,0l39.49-39.11c0.32-0.32,0.32-0.84,0-1.15v0
				c-0.32-0.32-0.84-0.32-1.17,0l-39.49,39.11C188.85,120.65,188.85,121.17,189.17,121.49z"/>
		</g>
		<g>
			<path class="st2" d="M184.7,131.69L184.7,131.69c0.32,0.32,0.84,0.32,1.17,0l52.18-51.67c0.32-0.32,0.32-0.84,0-1.16l0,0
				c-0.32-0.32-0.84-0.32-1.17,0l-52.18,51.67C184.37,130.86,184.37,131.37,184.7,131.69z"/>
		</g>
		<g>
			<path class="st2" d="M181.85,140.29L181.85,140.29c0.32,0.32,0.84,0.32,1.17,0l61.9-61.3c0.32-0.32,0.32-0.84,0-1.15l0,0
				c-0.32-0.32-0.84-0.32-1.17,0l-61.9,61.3C181.52,139.45,181.52,139.97,181.85,140.29z"/>
		</g>
		<g>
			<path class="st2" d="M179.96,147.94L179.96,147.94c0.32,0.32,0.84,0.32,1.17,0l69.8-69.12c0.32-0.32,0.32-0.84,0-1.16l0,0
				c-0.32-0.32-0.84-0.32-1.17,0l-69.8,69.12C179.64,147.1,179.64,147.62,179.96,147.94z"/>
		</g>
		<g>
			<path class="st2" d="M178.72,154.93L178.72,154.93c0.32,0.32,0.84,0.32,1.17,0l76.42-75.68c0.32-0.32,0.32-0.84,0-1.15l0,0
				c-0.32-0.32-0.84-0.32-1.17,0l-76.42,75.68C178.4,154.1,178.4,154.61,178.72,154.93z"/>
		</g>
		<g>
			<path class="st2" d="M177.99,161.44L177.99,161.44c0.32,0.32,0.84,0.32,1.17,0l82.04-81.24c0.32-0.32,0.32-0.84,0-1.15l0,0
				c-0.32-0.32-0.84-0.32-1.17,0l-82.04,81.24C177.66,160.6,177.66,161.12,177.99,161.44z"/>
		</g>
		<g>
			<path class="st2" d="M177.63,167.56L177.63,167.56c0.32,0.32,0.84,0.32,1.17,0l86.84-86c0.32-0.32,0.32-0.84,0-1.16h0
				c-0.32-0.32-0.84-0.32-1.17,0l-86.84,86C177.31,166.73,177.31,167.24,177.63,167.56z"/>
		</g>
		<g>
			<path class="st2" d="M177.61,173.37L177.61,173.37c0.32,0.32,0.84,0.32,1.17,0l90.94-90.06c0.32-0.32,0.32-0.84,0-1.15l0,0
				c-0.32-0.32-0.84-0.32-1.17,0l-90.94,90.06C177.28,172.53,177.28,173.05,177.61,173.37z"/>
		</g>
		<g>
			<path class="st2" d="M177.84,178.91L177.84,178.91c0.32,0.32,0.84,0.32,1.17,0l94.43-93.51c0.32-0.32,0.32-0.84,0-1.16h0
				c-0.32-0.32-0.84-0.32-1.17,0l-94.43,93.51C177.52,178.07,177.52,178.59,177.84,178.91z"/>
		</g>
		<g>
			<path class="st2" d="M178.31,184.22L178.31,184.22c0.32,0.32,0.84,0.32,1.17,0l97.37-96.42c0.32-0.32,0.32-0.84,0-1.15l0,0
				c-0.32-0.32-0.84-0.32-1.17,0l-97.37,96.42C177.99,183.39,177.99,183.9,178.31,184.22z"/>
		</g>
		<g>
			<path class="st2" d="M178.99,189.33L178.99,189.33c0.32,0.32,0.84,0.32,1.17,0l99.81-98.84c0.32-0.32,0.32-0.84,0-1.15l0,0
				c-0.32-0.32-0.84-0.32-1.17,0l-99.81,98.84C178.67,188.5,178.67,189.01,178.99,189.33z"/>
		</g>
		<g>
			<path class="st2" d="M179.84,194.27L179.84,194.27c0.32,0.32,0.84,0.32,1.17,0l101.79-100.8c0.32-0.32,0.32-0.84,0-1.15l0,0
				c-0.32-0.32-0.84-0.32-1.17,0l-101.79,100.8C179.52,193.43,179.52,193.95,179.84,194.27z"/>
		</g>
		<g>
			<path class="st2" d="M180.85,199.04L180.85,199.04c0.32,0.32,0.84,0.32,1.17,0L285.35,96.71c0.32-0.32,0.32-0.84,0-1.15v0
				c-0.32-0.32-0.84-0.32-1.17,0L180.85,197.89C180.53,198.21,180.53,198.72,180.85,199.04z"/>
		</g>
		<g>
			<path class="st2" d="M182,203.68L182,203.68c0.32,0.32,0.84,0.32,1.17,0l104.48-103.46c0.32-0.32,0.32-0.84,0-1.16l0,0
				c-0.32-0.32-0.84-0.32-1.17,0L182,202.52C181.68,202.84,181.68,203.36,182,203.68z"/>
		</g>
		<g>
			<path class="st2" d="M183.28,208.18L183.28,208.18c0.32,0.32,0.84,0.32,1.17,0l105.17-104.15c0.32-0.32,0.32-0.84,0-1.16v0
				c-0.32-0.32-0.84-0.32-1.17,0L183.28,207.03C182.96,207.35,182.96,207.86,183.28,208.18z"/>
		</g>
		<g>
			<path class="st2" d="M184.69,212.57L184.69,212.57c0.32,0.32,0.84,0.32,1.17,0l105.38-104.36c0.32-0.32,0.32-0.84,0-1.15v0
				c-0.32-0.32-0.84-0.32-1.17,0L184.69,211.41C184.37,211.73,184.37,212.25,184.69,212.57z"/>
		</g>
		<g>
			<path class="st2" d="M186.2,216.84L186.2,216.84c0.32,0.32,0.84,0.32,1.17,0l105.04-104.02c0.32-0.32,0.32-0.84,0-1.15v0
				c-0.32-0.32-0.84-0.32-1.17,0L186.2,215.69C185.88,216.01,185.88,216.52,186.2,216.84z"/>
		</g>
		<g>
			<path class="st2" d="M187.82,221.01L187.82,221.01c0.32,0.32,0.84,0.32,1.17,0l104.03-103.02c0.32-0.32,0.32-0.84,0-1.15l0,0
				c-0.32-0.32-0.84-0.32-1.17,0L187.82,219.86C187.5,220.18,187.5,220.69,187.82,221.01z"/>
		</g>
		<g>
			<path class="st2" d="M189.53,225.1L189.53,225.1c0.32,0.32,0.84,0.32,1.17,0L292.89,123.9c0.32-0.32,0.32-0.84,0-1.15l0,0
				c-0.32-0.32-0.84-0.32-1.17,0L189.53,223.94C189.21,224.26,189.21,224.78,189.53,225.1z"/>
		</g>
		<g>
			<path class="st2" d="M191.34,229.08L191.34,229.08c0.32,0.32,0.84,0.32,1.17,0l99.21-98.24c0.32-0.32,0.32-0.84,0-1.16v0
				c-0.32-0.32-0.84-0.32-1.17,0l-99.21,98.24C191.02,228.25,191.02,228.76,191.34,229.08z"/>
		</g>
		<g>
			<path class="st2" d="M193.25,232.97L193.25,232.97c0.32,0.32,0.84,0.32,1.17,0l94.52-93.6c0.32-0.32,0.32-0.84,0-1.15l0,0
				c-0.32-0.32-0.84-0.32-1.17,0l-94.52,93.6C192.93,232.13,192.93,232.65,193.25,232.97z"/>
		</g>
		<g>
			<path class="st2" d="M195.27,236.75L195.27,236.75c0.32,0.32,0.84,0.32,1.17,0l86.65-85.8c0.32-0.32,0.32-0.84,0-1.16h0
				c-0.32-0.32-0.84-0.32-1.17,0l-86.65,85.8C194.95,235.91,194.95,236.43,195.27,236.75z"/>
		</g>
		<g>
			<path class="st2" d="M197.37,240.44L197.37,240.44c0.32,0.32,0.84,0.32,1.17,0l68.75-68.09c0.32-0.32,0.32-0.84,0-1.16v0
				c-0.32-0.32-0.84-0.32-1.17,0l-68.75,68.09C197.05,239.6,197.05,240.12,197.37,240.44z"/>
		</g>
		<g>
			<path class="st2" d="M199.59,244.02L199.59,244.02c0.32,0.32,0.84,0.32,1.17,0l59.22-58.65c0.32-0.32,0.32-0.84,0-1.16l0,0
				c-0.32-0.32-0.84-0.32-1.17,0l-59.22,58.65C199.27,243.18,199.27,243.7,199.59,244.02z"/>
		</g>
		<g>
			<path class="st2" d="M201.91,247.5L201.91,247.5c0.32,0.32,0.84,0.32,1.17,0l54.19-53.66c0.32-0.32,0.32-0.84,0-1.16l0,0
				c-0.32-0.32-0.84-0.32-1.17,0l-54.19,53.66C201.59,246.66,201.59,247.18,201.91,247.5z"/>
		</g>
		<g>
			<path class="st2" d="M204.34,250.87L204.34,250.87c0.32,0.32,0.84,0.32,1.17,0l50.29-49.8c0.32-0.32,0.32-0.84,0-1.15l0,0
				c-0.32-0.32-0.84-0.32-1.17,0l-50.29,49.8C204.02,250.03,204.02,250.55,204.34,250.87z"/>
		</g>
		<g>
			<path class="st2" d="M206.88,254.13L206.88,254.13c0.32,0.32,0.84,0.32,1.17,0l47.02-46.56c0.32-0.32,0.32-0.84,0-1.15h0
				c-0.32-0.32-0.84-0.32-1.17,0l-47.02,46.56C206.56,253.29,206.56,253.81,206.88,254.13z"/>
		</g>
		<g>
			<path class="st2" d="M209.53,257.28L209.53,257.28c0.32,0.32,0.84,0.32,1.17,0l44.16-43.73c0.32-0.32,0.32-0.84,0-1.15l0,0
				c-0.32-0.32-0.84-0.32-1.17,0l-44.16,43.73C209.21,256.44,209.21,256.96,209.53,257.28z"/>
		</g>
		<g>
			<path class="st2" d="M212.31,260.31L212.31,260.31c0.32,0.32,0.84,0.32,1.17,0l41.6-41.2c0.32-0.32,0.32-0.84,0-1.16h0
				c-0.32-0.32-0.84-0.32-1.17,0l-41.6,41.2C211.98,259.48,211.98,259.99,212.31,260.31z"/>
		</g>
		<g>
			<path class="st2" d="M215.21,263.22L215.21,263.22c0.32,0.32,0.84,0.32,1.17,0l39.29-38.9c0.32-0.32,0.32-0.84,0-1.16v0
				c-0.32-0.32-0.84-0.32-1.17,0l-39.29,38.9C214.88,262.38,214.88,262.9,215.21,263.22z"/>
		</g>
		<g>
			<path class="st2" d="M218.23,266L218.23,266c0.32,0.32,0.84,0.32,1.17,0l37.19-36.83c0.32-0.32,0.32-0.84,0-1.15l0,0
				c-0.32-0.32-0.84-0.32-1.17,0l-37.19,36.83C217.91,265.16,217.91,265.68,218.23,266z"/>
		</g>
		<g>
			<path class="st2" d="M221.4,268.63L221.4,268.63c0.32,0.32,0.84,0.32,1.17,0l35.26-34.92c0.32-0.32,0.32-0.84,0-1.15h0
				c-0.32-0.32-0.84-0.32-1.17,0l-35.26,34.92C221.08,267.8,221.08,268.31,221.4,268.63z"/>
		</g>
		<g>
			<path class="st2" d="M224.72,271.12L224.72,271.12c0.32,0.32,0.84,0.32,1.17,0l33.51-33.18c0.32-0.32,0.32-0.84,0-1.15l0,0
				c-0.32-0.32-0.84-0.32-1.17,0l-33.51,33.18C224.4,270.28,224.4,270.8,224.72,271.12z"/>
		</g>
		<g>
			<path class="st2" d="M228.21,273.44L228.21,273.44c0.32,0.32,0.84,0.32,1.17,0l31.91-31.6c0.32-0.32,0.32-0.84,0-1.15l0,0
				c-0.32-0.32-0.84-0.32-1.17,0l-31.91,31.6C227.88,272.61,227.88,273.13,228.21,273.44z"/>
		</g>
		<g>
			<path class="st2" d="M231.87,275.59L231.87,275.59c0.32,0.32,0.84,0.32,1.17,0l30.48-30.19c0.32-0.32,0.32-0.84,0-1.16l0,0
				c-0.32-0.32-0.84-0.32-1.17,0l-30.48,30.19C231.55,274.75,231.55,275.27,231.87,275.59z"/>
		</g>
		<g>
			<path class="st2" d="M235.75,277.52L235.75,277.52c0.32,0.32,0.84,0.32,1.17,0l29.21-28.92c0.32-0.32,0.32-0.84,0-1.15l0,0
				c-0.32-0.32-0.84-0.32-1.17,0l-29.21,28.92C235.43,276.68,235.43,277.2,235.75,277.52z"/>
		</g>
		<g>
			<path class="st2" d="M239.88,279.21L239.88,279.21c0.32,0.32,0.84,0.32,1.17,0l27.74-27.47c0.32-0.32,0.32-0.84,0-1.15v0
				c-0.32-0.32-0.84-0.32-1.17,0l-27.74,27.47C239.56,278.37,239.56,278.89,239.88,279.21z"/>
		</g>
		<g>
			<path class="st2" d="M244.33,280.58L244.33,280.58c0.32,0.32,0.84,0.32,1.17,0l25.59-25.34c0.32-0.32,0.32-0.84,0-1.15l0,0
				c-0.32-0.32-0.84-0.32-1.17,0l-25.59,25.34C244.01,279.75,244.01,280.26,244.33,280.58z"/>
		</g>
		<g>
			<path class="st2" d="M249.2,281.54L249.2,281.54c0.32,0.32,0.84,0.32,1.17,0l22.47-22.25c0.32-0.32,0.32-0.84,0-1.15l0,0
				c-0.32-0.32-0.84-0.32-1.17,0l-22.47,22.25C248.88,280.7,248.88,281.22,249.2,281.54z"/>
		</g>
		<g>
			<path class="st2" d="M254.72,281.85L254.72,281.85c0.32,0.32,0.84,0.32,1.17,0l17.82-17.65c0.32-0.32,0.32-0.84,0-1.16v0
				c-0.32-0.32-0.84-0.32-1.17,0l-17.82,17.65C254.4,281.01,254.4,281.53,254.72,281.85z"/>
		</g>
		<g>
			<path class="st2" d="M261.9,280.51L261.9,280.51c0.32,0.32,0.84,0.32,1.17,0l9.4-9.31c0.32-0.32,0.32-0.84,0-1.15h0
				c-0.32-0.32-0.84-0.32-1.17,0l-9.4,9.31C261.58,279.67,261.58,280.19,261.9,280.51z"/>
		</g>
	</g>
	<linearGradient id="SVGID_1_" gradientUnits="userSpaceOnUse" x1="97.2226" y1="162.4937" x2="304.358" y2="162.4937">
		<stop  offset="0" style="stop-color:#F68E1F"/>
		<stop  offset="0.9235" style="stop-color:#FCB51D"/>
	</linearGradient>
	<path class="st3" d="M109.44,247.83c15.84,12.1,39.03,8.48,66.46-8.35c14.92-9.16,33.68-8.92,52.03-2.31
		c25.25,9.09,50.51,8.05,65.33-11.91c14.83-19.96,23.63-61.25-33.09-79.75c-20.62-6.73-41.48-25.5-52.68-47.79
		c-11.87-23.64-27.98-28.69-45.05-27.56c-9.99,0.67-34.2,8.18-39.9,31.67c-6.61,27.27,10.88,48.19-9.17,79.64
		C94.31,211.36,91.02,233.76,109.44,247.83z"/>
	<circle class="st4" cx="296.96" cy="229.07" r="12.33"/>
	<path class="st4" d="M194.99,92.65c3.65,1.84,8.09,0.38,9.94-3.27c1.84-3.65,0.38-8.09-3.27-9.94c-3.65-1.84-8.09-0.38-9.94,3.27
		C189.88,86.36,191.34,90.81,194.99,92.65z"/>
	<path class="st5" d="M231.07,291.4c24.2,7.86,42.78-0.98,52.35-11.3c7.56-8.15,9.39-23.04-1.7-29.93
		c-12.87-8-25.88,4.56-30.82,8.95c-7.64,6.79-23.96,8.64-31.38,2.85c-7.42-5.79-13.28-0.18-13.74,4.01
		C204.95,273.51,212.59,285.4,231.07,291.4z"/>
	<path class="st0" d="M132.82,126.71c10.51-0.7,12.69-8.12,15.57-15.85c2.4-6.45,7.97-12.37,16.96-15.74
		c6.71-2.51,5.36-10.74-4.56-16.32c-10.72-6.03-21.1-4.03-29.32-0.43c-8.22,3.6-18.1,12.07-18.66,26.07
		C112.14,121.06,125.27,127.21,132.82,126.71z"/>
	<path class="st2" d="M325.81,120.76c-2.67-10.78-9.74-19.03-19.67-22.81c-7.05-2.68-17.05-3.04-26.58,0.87
		c-4.58,1.88-11.45,7.69-12.14,15.36c-0.69,7.67,5.74,11.71,10.79,13.57c5.04,1.87,13.96,4.48,20.19,9.48
		c5.56,4.46,10.77,8.82,16.45,7.86C320.52,144.14,329.14,134.2,325.81,120.76z"/>
</g>
<g id="phone">
	<g id="XMLID_00000000212902429413391950000005644425683312941189_">
		
			<linearGradient id="SVGID_00000029746361333642868190000001083510948664338075_" gradientUnits="userSpaceOnUse" x1="289.7978" y1="279.2426" x2="95.7543" y2="85.1991">
			<stop  offset="0.3342" style="stop-color:#F68E1F"/>
			<stop  offset="0.5241" style="stop-color:#FCB51D"/>
		</linearGradient>
		<path style="fill:url(#SVGID_00000029746361333642868190000001083510948664338075_);" d="M253.62,57.09H131.94
			c-10.76,0-19.48,8.72-19.48,19.48v211.32c0,10.76,8.72,19.48,19.48,19.48h121.68c10.76,0,19.48-8.72,19.48-19.48V76.56
			C273.09,65.8,264.37,57.09,253.62,57.09z"/>
		<path class="st7" d="M261.98,284.1c0,7.5-6.08,13.58-13.58,13.58H137.15c-7.5,0-13.58-6.08-13.58-13.58V80.34
			c0-7.5,6.08-13.58,13.58-13.58h22.29c1.2,0,2.17,0.97,2.17,2.17v0c0,4.68,3.8,8.48,8.48,8.48h45.44c4.64,0,8.41-3.77,8.41-8.41
			v-0.07c0-1.2,0.97-2.17,2.17-2.17h22.29c7.5,0,13.58,6.08,13.58,13.58V284.1z"/>
	</g>
	<g>
		<path class="st8" d="M203.77,131.93h-66.67c-2.27,0-4.11-1.84-4.11-4.11v-20.49c0-2.27,1.84-4.11,4.11-4.11h66.67
			c2.27,0,4.11,1.84,4.11,4.11v20.49C207.88,130.09,206.04,131.93,203.77,131.93z"/>
		<g>
			
				<linearGradient id="SVGID_00000065073812302677675700000013815565399081001125_" gradientUnits="userSpaceOnUse" x1="139.2904" y1="111.8307" x2="201.5699" y2="111.8307">
				<stop  offset="0" style="stop-color:#F68E1F"/>
				<stop  offset="0.5809" style="stop-color:#FCB51D"/>
			</linearGradient>
			
				<line style="fill:none;stroke:url(#SVGID_00000065073812302677675700000013815565399081001125_);stroke-width:2;stroke-linecap:round;stroke-miterlimit:10;" x1="140.29" y1="111.83" x2="200.57" y2="111.83"/>
			
				<linearGradient id="SVGID_00000098199946583480366050000015560872287494621364_" gradientUnits="userSpaceOnUse" x1="139.6473" y1="117.5777" x2="185.2406" y2="117.5777">
				<stop  offset="0" style="stop-color:#F68E1F"/>
				<stop  offset="0.5809" style="stop-color:#FCB51D"/>
			</linearGradient>
			
				<line style="fill:none;stroke:url(#SVGID_00000098199946583480366050000015560872287494621364_);stroke-width:2;stroke-linecap:round;stroke-miterlimit:10;" x1="140.65" y1="117.58" x2="184.24" y2="117.58"/>
			
				<linearGradient id="SVGID_00000163057673216019956040000010756025272761034427_" gradientUnits="userSpaceOnUse" x1="139.6473" y1="123.3248" x2="170.1902" y2="123.3248">
				<stop  offset="0" style="stop-color:#F68E1F"/>
				<stop  offset="0.5809" style="stop-color:#FCB51D"/>
			</linearGradient>
			
				<line style="fill:none;stroke:url(#SVGID_00000163057673216019956040000010756025272761034427_);stroke-width:2;stroke-linecap:round;stroke-miterlimit:10;" x1="140.65" y1="123.32" x2="169.19" y2="123.32"/>
			
				<linearGradient id="SVGID_00000076585397524305873550000012382583884356298144_" gradientUnits="userSpaceOnUse" x1="172.7138" y1="123.3248" x2="188.9853" y2="123.3248">
				<stop  offset="0" style="stop-color:#F68E1F"/>
				<stop  offset="0.5809" style="stop-color:#FCB51D"/>
			</linearGradient>
			
				<line style="fill:none;stroke:url(#SVGID_00000076585397524305873550000012382583884356298144_);stroke-width:2;stroke-linecap:round;stroke-miterlimit:10;" x1="173.71" y1="123.32" x2="187.99" y2="123.32"/>
		</g>
	</g>
	<g>
		<path class="st8" d="M248.46,275.25h-66.67c-2.27,0-4.11-1.84-4.11-4.11v-20.49c0-2.27,1.84-4.11,4.11-4.11h66.67
			c2.27,0,4.11,1.84,4.11,4.11v20.49C252.57,273.41,250.73,275.25,248.46,275.25z"/>
		<g>
			
				<linearGradient id="SVGID_00000164501539395945835750000016573230510468141240_" gradientUnits="userSpaceOnUse" x1="183.9822" y1="255.1475" x2="246.2617" y2="255.1475">
				<stop  offset="0" style="stop-color:#F68E1F"/>
				<stop  offset="0.5809" style="stop-color:#FCB51D"/>
			</linearGradient>
			
				<line style="fill:none;stroke:url(#SVGID_00000164501539395945835750000016573230510468141240_);stroke-width:2;stroke-linecap:round;stroke-miterlimit:10;" x1="184.98" y1="255.15" x2="245.26" y2="255.15"/>
			
				<linearGradient id="SVGID_00000150103381111150423550000016798919572230432668_" gradientUnits="userSpaceOnUse" x1="197.7671" y1="260.8945" x2="246.2617" y2="260.8945">
				<stop  offset="0" style="stop-color:#F68E1F"/>
				<stop  offset="0.5809" style="stop-color:#FCB51D"/>
			</linearGradient>
			
				<line style="fill:none;stroke:url(#SVGID_00000150103381111150423550000016798919572230432668_);stroke-width:2;stroke-linecap:round;stroke-miterlimit:10;" x1="198.77" y1="260.89" x2="245.26" y2="260.89"/>
			
				<linearGradient id="SVGID_00000080894705344013490510000000123762901500561042_" gradientUnits="userSpaceOnUse" x1="212.0386" y1="266.6416" x2="246.2617" y2="266.6416">
				<stop  offset="0" style="stop-color:#F68E1F"/>
				<stop  offset="0.5809" style="stop-color:#FCB51D"/>
			</linearGradient>
			
				<line style="fill:none;stroke:url(#SVGID_00000080894705344013490510000000123762901500561042_);stroke-width:2;stroke-linecap:round;stroke-miterlimit:10;" x1="213.04" y1="266.64" x2="245.26" y2="266.64"/>
		</g>
	</g>
	<g>
		<path class="st8" d="M203.77,227.74h-66.67c-2.27,0-4.11-1.84-4.11-4.11v-20.49c0-2.27,1.84-4.11,4.11-4.11h66.67
			c2.27,0,4.11,1.84,4.11,4.11v20.49C207.88,225.9,206.04,227.74,203.77,227.74z"/>
		<g>
			
				<linearGradient id="SVGID_00000123432742092205730030000015997200855261564304_" gradientUnits="userSpaceOnUse" x1="139.2904" y1="207.6349" x2="201.5699" y2="207.6349">
				<stop  offset="0" style="stop-color:#F68E1F"/>
				<stop  offset="0.5809" style="stop-color:#FCB51D"/>
			</linearGradient>
			
				<line style="fill:none;stroke:url(#SVGID_00000123432742092205730030000015997200855261564304_);stroke-width:2;stroke-linecap:round;stroke-miterlimit:10;" x1="140.29" y1="207.63" x2="200.57" y2="207.63"/>
			
				<linearGradient id="SVGID_00000004521441644359308370000010872748846634735238_" gradientUnits="userSpaceOnUse" x1="139.6473" y1="213.382" x2="185.2406" y2="213.382">
				<stop  offset="0" style="stop-color:#F68E1F"/>
				<stop  offset="0.5809" style="stop-color:#FCB51D"/>
			</linearGradient>
			
				<line style="fill:none;stroke:url(#SVGID_00000004521441644359308370000010872748846634735238_);stroke-width:2;stroke-linecap:round;stroke-miterlimit:10;" x1="140.65" y1="213.38" x2="184.24" y2="213.38"/>
			
				<linearGradient id="SVGID_00000180324451514542359170000011197306701096497069_" gradientUnits="userSpaceOnUse" x1="139.6473" y1="219.129" x2="158.0496" y2="219.129">
				<stop  offset="0" style="stop-color:#F68E1F"/>
				<stop  offset="0.5809" style="stop-color:#FCB51D"/>
			</linearGradient>
			
				<line style="fill:none;stroke:url(#SVGID_00000180324451514542359170000011197306701096497069_);stroke-width:2;stroke-linecap:round;stroke-miterlimit:10;" x1="140.65" y1="219.13" x2="157.05" y2="219.13"/>
			
				<linearGradient id="SVGID_00000028292791992075955780000007186372725117010090_" gradientUnits="userSpaceOnUse" x1="161.3701" y1="219.129" x2="177.6416" y2="219.129">
				<stop  offset="0" style="stop-color:#F68E1F"/>
				<stop  offset="0.5809" style="stop-color:#FCB51D"/>
			</linearGradient>
			
				<line style="fill:none;stroke:url(#SVGID_00000028292791992075955780000007186372725117010090_);stroke-width:2;stroke-linecap:round;stroke-miterlimit:10;" x1="162.37" y1="219.13" x2="176.64" y2="219.13"/>
		</g>
	</g>
	<g>
		<path class="st8" d="M248.46,179.17h-66.67c-2.27,0-4.11-1.84-4.11-4.11v-20.49c0-2.27,1.84-4.11,4.11-4.11h66.67
			c2.27,0,4.11,1.84,4.11,4.11v20.49C252.57,177.33,250.73,179.17,248.46,179.17z"/>
		<g>
			
				<linearGradient id="SVGID_00000039117474919393982810000015247618966268311711_" gradientUnits="userSpaceOnUse" x1="188.9645" y1="159.0712" x2="241.2794" y2="159.0712">
				<stop  offset="0" style="stop-color:#F68E1F"/>
				<stop  offset="0.5809" style="stop-color:#FCB51D"/>
			</linearGradient>
			
				<line style="fill:none;stroke:url(#SVGID_00000039117474919393982810000015247618966268311711_);stroke-width:2;stroke-linecap:round;stroke-miterlimit:10;" x1="189.96" y1="159.07" x2="240.28" y2="159.07"/>
			
				<linearGradient id="SVGID_00000092446558637562391700000016032259707408066716_" gradientUnits="userSpaceOnUse" x1="189.3213" y1="164.8183" x2="234.9147" y2="164.8183">
				<stop  offset="0" style="stop-color:#F68E1F"/>
				<stop  offset="0.5809" style="stop-color:#FCB51D"/>
			</linearGradient>
			
				<line style="fill:none;stroke:url(#SVGID_00000092446558637562391700000016032259707408066716_);stroke-width:2;stroke-linecap:round;stroke-miterlimit:10;" x1="190.32" y1="164.82" x2="233.91" y2="164.82"/>
			
				<linearGradient id="SVGID_00000052081323574983533010000009768755068834968505_" gradientUnits="userSpaceOnUse" x1="189.3213" y1="170.5654" x2="219.8643" y2="170.5654">
				<stop  offset="0" style="stop-color:#F68E1F"/>
				<stop  offset="0.5809" style="stop-color:#FCB51D"/>
			</linearGradient>
			
				<line style="fill:none;stroke:url(#SVGID_00000052081323574983533010000009768755068834968505_);stroke-width:2;stroke-linecap:round;stroke-miterlimit:10;" x1="190.32" y1="170.57" x2="218.86" y2="170.57"/>
		</g>
	</g>
</g>
<g id="Layer_3">
	<g>
		<path class="st23" d="M146.43,94.58h-45.71c-3.94,0-7.14-3.19-7.14-7.14V52.6c0-3.94,3.19-7.14,7.14-7.14h45.71
			c3.94,0,7.14,3.19,7.14,7.14v34.84C153.57,91.38,150.37,94.58,146.43,94.58z"/>
		<g>
			
				<linearGradient id="SVGID_00000119799433975012782760000004555611561439855751_" gradientUnits="userSpaceOnUse" x1="109.557" y1="70.0225" x2="137.5927" y2="70.0225">
				<stop  offset="0" style="stop-color:#F68E1F"/>
				<stop  offset="0.5809" style="stop-color:#FCB51D"/>
			</linearGradient>
			<path style="fill:url(#SVGID_00000119799433975012782760000004555611561439855751_);" d="M137.55,77.2l-1.27,5.52
				c-0.18,0.78-0.86,1.33-1.67,1.33c-13.82,0-25.05-11.24-25.05-25.06c0-0.8,0.55-1.49,1.33-1.67l5.52-1.27
				c0.8-0.19,1.63,0.23,1.96,0.99l2.55,5.94c0.3,0.7,0.1,1.52-0.49,2l-2.95,2.37c1.86,3.79,4.94,6.87,8.73,8.73l2.41-2.95
				c0.48-0.59,1.3-0.79,2-0.49l5.94,2.55C137.27,75.56,137.74,76.4,137.55,77.2z"/>
		</g>
	</g>
	<g>
		<path class="st25" d="M141.71,286.04H96c-3.94,0-7.14-3.19-7.14-7.14v-34.84c0-3.94,3.19-7.14,7.14-7.14h45.71
			c3.94,0,7.14,3.19,7.14,7.14v34.84C148.85,282.84,145.65,286.04,141.71,286.04z"/>
		<g>
			
				<linearGradient id="SVGID_00000075120488740811631620000009215190974009026225_" gradientUnits="userSpaceOnUse" x1="108.4027" y1="261.4816" x2="129.3085" y2="261.4816">
				<stop  offset="0" style="stop-color:#F68E1F"/>
				<stop  offset="0.5809" style="stop-color:#FCB51D"/>
			</linearGradient>
			<path style="fill:url(#SVGID_00000075120488740811631620000009215190974009026225_);" d="M129.31,261.55v0.91
				c0.04,2.05-1.3,4.02-3.32,4.49c-1.93,0.49-3.73-0.27-4.77-1.64c-0.84,0.67-1.88,1.09-3.04,1.09c-2.93,0-5.25-2.57-4.84-5.59
				c0.24-1.78,1.53-3.31,3.22-3.91c1.39-0.49,2.67-0.31,3.76,0.22c0.08-0.29,0.34-0.51,0.66-0.51h1.4c0.39,0,0.7,0.31,0.7,0.7v5.24
				c0,0.96,0.78,1.75,1.75,1.75c0.96,0,1.75-0.78,1.75-1.75v-0.71c0-4.01-2.93-7.61-6.92-8c-4.57-0.44-8.44,3.16-8.44,7.65
				c0,3.84,2.83,7.04,6.51,7.6c0.67,0.1,1.17,0.68,1.17,1.36v0.03c0,0.84-0.75,1.5-1.58,1.37c-5.69-0.82-9.89-6.29-8.69-12.44
				c0.8-4.08,4.08-7.37,8.16-8.16C123.46,249.96,129.31,255.04,129.31,261.55z M120.23,261.55c0-1.16-0.94-2.1-2.09-2.1
				s-2.09,0.94-2.09,2.1s0.94,2.1,2.09,2.1C119.33,263.65,120.23,262.71,120.23,261.55z"/>
		</g>
	</g>
	<g>
		<path class="st23" d="M298.89,219.11h-45.71c-3.94,0-7.14-3.19-7.14-7.14v-34.84c0-3.94,3.19-7.14,7.14-7.14h45.71
			c3.94,0,7.14,3.19,7.14,7.14v34.84C306.03,215.91,302.83,219.11,298.89,219.11z"/>
		<g>
			
				<linearGradient id="SVGID_00000029021183749129215430000004272902931979465893_" gradientUnits="userSpaceOnUse" x1="264.8624" y1="194.5506" x2="287.2052" y2="194.5506">
				<stop  offset="0" style="stop-color:#F68E1F"/>
				<stop  offset="0.5809" style="stop-color:#FCB51D"/>
			</linearGradient>
			<path style="fill:url(#SVGID_00000029021183749129215430000004272902931979465893_);" d="M285.11,186.17
				c1.16,0,2.09,0.94,2.09,2.09c0,0.66-0.31,1.28-0.84,1.68l-9.5,7.12c-0.5,0.37-1.18,0.37-1.68,0l-9.5-7.12
				c-0.53-0.4-0.84-1.02-0.84-1.68c0-1.16,0.94-2.09,2.09-2.09H285.11z M274.36,198.18c1,0.75,2.36,0.75,3.35,0l9.5-7.12v9.08
				c0,1.54-1.25,2.79-2.79,2.79h-16.76c-1.54,0-2.79-1.25-2.79-2.79v-9.08L274.36,198.18z"/>
		</g>
	</g>
</g>
</svg>
